# xmcd CD database file
#
# Track frame offsets:
#	150
#	14569
#	31281
#	48572
#	61257
#	76993
#	95710
#	111893
#	135702
#	148277
#	167600
#	182689
#	196830
#	211427
#
# Disc length: 2985 seconds
#
# Revision: 4
# Processed by: cddbd v1.5.2PL0 Copyright (c) Steve Scherf et al.
# Submitted via: CDex 1.51
#
DISCID=c90ba70e
DTITLE=Pink Turtle - A la mode
DYEAR=2012
DGENRE=Jazz
TTITLE0=Pink Turtle - Video Killed The Radio Star
TTITLE1=Pink Turtle - Baker Street
TTITLE2=Pink Turtle - A Hard Day's Night
TTITLE3=Pink Turtle - Don't Stop
TTITLE4=Pink Turtle - Sultans Of Swing
TTITLE5=Pink Turtle - You Really Got Me
TTITLE6=Pink Turtle - Get Up Stand Up
TTITLE7=Pink Turtle - Imagine
TTITLE8=Pink Turtle - Give A Little Bit
TTITLE9=Pink Turtle - Day Dream
TTITLE10=Pink Turtle - Nothing From Nothing
TTITLE11=Pink Turtle - You're The One That I Want
TTITLE12=Pink Turtle - Can't Take My Eyes Off You
TTITLE13=Pink Turtle - Isn't She Lovely
EXTD=YEAR: 2012
EXTT0=
EXTT1=
EXTT2=
EXTT3=
EXTT4=
EXTT5=
EXTT6=
EXTT7=
EXTT8=
EXTT9=
EXTT10=
EXTT11=
EXTT12=
EXTT13=
PLAYORDER=
